<svg xmlns="http://www.w3.org/2000/svg" width="158" height="220" viewBox="0 0 158 220">
  <metadata><?xpacket begin="﻿" id="W5M0MpCehiHzreSzNTczkc9d"?>
<x:xmpmeta xmlns:x="adobe:ns:meta/" x:xmptk="Adobe XMP Core 5.6-c142 79.160924, 2017/07/13-01:06:39        ">
   <rdf:RDF xmlns:rdf="http://www.w3.org/1999/02/22-rdf-syntax-ns#">
      <rdf:Description rdf:about=""/>
   </rdf:RDF>
</x:xmpmeta>
                                                                                                    
                                                                                                    
                                                                                                    
                                                                                                    
                                                                                                    
                                                                                                    
                                                                                                    
                                                                                                    
                                                                                                    
                                                                                                    
                                                                                                    
                                                                                                    
                                                                                                    
                                                                                                    
                                                                                                    
                                                                                                    
                                                                                                    
                                                                                                    
                                                                                                    
                                                                                                    
                           
<?xpacket end="w"?></metadata>
<defs>
    <style>
      .cls-1 {
        fill: #677a8f;
        fill-rule: evenodd;
      }
    </style>
  </defs>
  <path id="bochka" class="cls-1" d="M1777.05,1032a4,4,0,0,1,0,8H1777v43h0.05a4,4,0,0,1,0,8s-36.56,2-73.59,2c-38.01,0-76.51-2-76.51-2a4,4,0,0,1,0-8H1627v-43h-0.05a4,4,0,0,1,0-8H1627V981h-0.05a4,4,0,0,1,0-8H1627V927h-0.05a4,4,0,0,1,0-8H1627V883h-0.05a4,4,0,0,1,0-8s38.5-2,76.51-2c37.03,0,73.59,2,73.59,2a4,4,0,0,1,0,8H1777v36h0.05a4,4,0,0,1,0,8H1777v46h0.05a4,4,0,0,1,0,8H1777v51h0.05ZM1774,878H1630v210h144V878Z" transform="translate(-1623 -873)"/>
</svg>
