<svg id="ic_Grid_Integration" data-name="ic_Grid Integration" xmlns="http://www.w3.org/2000/svg" width="66" height="66" viewBox="0 0 66 66">
  <metadata><?xpacket begin="﻿" id="W5M0MpCehiHzreSzNTczkc9d"?>
<x:xmpmeta xmlns:x="adobe:ns:meta/" x:xmptk="Adobe XMP Core 5.6-c142 79.160924, 2017/07/13-01:06:39        ">
   <rdf:RDF xmlns:rdf="http://www.w3.org/1999/02/22-rdf-syntax-ns#">
      <rdf:Description rdf:about=""/>
   </rdf:RDF>
</x:xmpmeta>
                                                                                                    
                                                                                                    
                                                                                                    
                                                                                                    
                                                                                                    
                                                                                                    
                                                                                                    
                                                                                                    
                                                                                                    
                                                                                                    
                                                                                                    
                                                                                                    
                                                                                                    
                                                                                                    
                                                                                                    
                                                                                                    
                                                                                                    
                                                                                                    
                                                                                                    
                                                                                                    
                           
<?xpacket end="w"?></metadata>
<defs>
    <style>
      .cls-1 {
        fill: #f0f1f7;
        fill-rule: evenodd;
      }

      .cls-2 {
        fill: #3b6291;
      }

      .cls-3 {
        fill: #4079b6;
      }

      .cls-4 {
        fill: #1e8dea;
      }

      .cls-5 {
        fill: #fff;
      }
    </style>
  </defs>
  <g id="Група_45" data-name="Група 45">
    <path id="Прямокутник_873_копія_7" data-name="Прямокутник 873 копія 7" class="cls-1" d="M19,381.5v-5a1.5,1.5,0,0,1,3,0V380H36v-1.5a1.5,1.5,0,1,1,3,0V380H50v-3.5a1.5,1.5,0,0,1,3,0V380H65v-1.5a1.5,1.5,0,1,1,3,0V380H80v-3.5a1.5,1.5,0,0,1,3,0v5a1.5,1.5,0,0,1-1.5,1.5h-61A1.5,1.5,0,0,1,19,381.5Z" transform="translate(-18 -324)"/>
    <rect id="Прямокутник_869_копія_8" data-name="Прямокутник 869 копія 8" class="cls-2" x="50" y="38" width="15" height="10"/>
    <rect id="Прямокутник_869_копія_7" data-name="Прямокутник 869 копія 7" class="cls-3" x="34" y="38" width="16" height="10"/>
    <rect id="Прямокутник_869_копія_6" data-name="Прямокутник 869 копія 6" class="cls-4" x="1" y="38" width="33" height="10"/>
    <rect id="Прямокутник_1102" data-name="Прямокутник 1102" class="cls-5" x="1" y="42" width="46" height="2"/>
    <rect id="Прямокутник_1103" data-name="Прямокутник 1103" class="cls-5" x="53" y="40" width="2" height="6"/>
  </g>
  <g id="Група_45_копія_5" data-name="Група 45 копія 5">
    <path id="Прямокутник_873_копія_7-2" data-name="Прямокутник 873 копія 7" class="cls-1" d="M19,350.5v-5a1.5,1.5,0,0,1,3,0V349H36v-1.5a1.5,1.5,0,1,1,3,0V349H50v-3.5a1.5,1.5,0,0,1,3,0V349H65v-1.5a1.5,1.5,0,1,1,3,0V349H80v-3.5a1.5,1.5,0,0,1,3,0v5a1.5,1.5,0,0,1-1.5,1.5h-61A1.5,1.5,0,0,1,19,350.5Z" transform="translate(-18 -324)"/>
    <rect id="Прямокутник_869_копія_8-2" data-name="Прямокутник 869 копія 8" class="cls-2" x="50" y="7" width="15" height="10"/>
    <rect id="Прямокутник_869_копія_7-2" data-name="Прямокутник 869 копія 7" class="cls-3" x="34" y="7" width="16" height="10"/>
    <rect id="Прямокутник_869_копія_6-2" data-name="Прямокутник 869 копія 6" class="cls-4" x="1" y="7" width="33" height="10"/>
    <rect id="Прямокутник_1102-2" data-name="Прямокутник 1102" class="cls-5" x="1" y="11" width="29" height="2"/>
    <rect id="Прямокутник_1103-2" data-name="Прямокутник 1103" class="cls-5" x="36" y="9" width="2" height="6"/>
  </g>
</svg>
