<svg id="ic_knob" xmlns="http://www.w3.org/2000/svg" width="66" height="66" viewBox="0 0 66 66">
  <metadata><?xpacket begin="﻿" id="W5M0MpCehiHzreSzNTczkc9d"?>
<x:xmpmeta xmlns:x="adobe:ns:meta/" x:xmptk="Adobe XMP Core 5.6-c142 79.160924, 2017/07/13-01:06:39        ">
   <rdf:RDF xmlns:rdf="http://www.w3.org/1999/02/22-rdf-syntax-ns#">
      <rdf:Description rdf:about=""/>
   </rdf:RDF>
</x:xmpmeta>
                                                                                                    
                                                                                                    
                                                                                                    
                                                                                                    
                                                                                                    
                                                                                                    
                                                                                                    
                                                                                                    
                                                                                                    
                                                                                                    
                                                                                                    
                                                                                                    
                                                                                                    
                                                                                                    
                                                                                                    
                                                                                                    
                                                                                                    
                                                                                                    
                                                                                                    
                                                                                                    
                           
<?xpacket end="w"?></metadata>
<defs>
    <style>
      .cls-1 {
        fill: #f0f1f7;
      }

      .cls-1, .cls-2 {
        fill-rule: evenodd;
      }

      .cls-2 {
        fill: #3b6291;
      }

      .cls-3 {
        fill: #4079b6;
      }

      .cls-4 {
        fill: #1e8dea;
      }
    </style>
  </defs>
  <path id="Еліпс_524_копія" data-name="Еліпс 524 копія" class="cls-1" d="M140.5,216a1.5,1.5,0,0,1,1.5,1.5v2a1.5,1.5,0,0,1-3,0v-2A1.5,1.5,0,0,1,140.5,216Zm30,32h2a1.5,1.5,0,0,1,0,3h-2A1.5,1.5,0,0,1,170.5,248Zm-61,0h2a1.5,1.5,0,0,1,0,3h-2A1.5,1.5,0,0,1,109.5,248Zm51.3-20.42,1.414-1.415a1.5,1.5,0,1,1,2.121,2.122L162.92,229.7A1.5,1.5,0,0,1,160.8,227.58Zm-43.134,43.133,1.415-1.414a1.5,1.5,0,0,1,2.121,2.121l-1.414,1.414A1.5,1.5,0,1,1,117.665,270.713Zm3.356-42.865-1.428-1.428a1.515,1.515,0,1,0-2.142,2.142l1.428,1.428A1.515,1.515,0,0,0,121.021,227.848Zm43.559,43.559-1.428-1.429a1.515,1.515,0,1,0-2.142,2.143l1.428,1.428A1.515,1.515,0,0,0,164.58,271.407ZM156.839,267l-1.98-2.25a21,21,0,1,0-28.061-.312l-2.029,2.206A24,24,0,1,1,156.839,267Z" transform="translate(-108 -212)"/>
  <path id="Еліпс_524_копія_2" data-name="Еліпс 524 копія 2" class="cls-2" d="M158.443,239.232a19.988,19.988,0,1,0-32.1,23.341l-0.125.116a2.495,2.495,0,1,1-4.055,2.668A24.972,24.972,0,1,1,162.8,236.79Z" transform="translate(-108 -212)"/>
  <circle id="Еліпс_525" data-name="Еліпс 525" class="cls-3" cx="45" cy="32" r="2"/>
  <circle id="Еліпс_524" data-name="Еліпс 524" class="cls-4" cx="53" cy="27" r="5"/>
</svg>
