<svg id="ic_Linear" xmlns="http://www.w3.org/2000/svg" width="66" height="66" viewBox="0 0 66 66">
  <metadata><?xpacket begin="﻿" id="W5M0MpCehiHzreSzNTczkc9d"?>
<x:xmpmeta xmlns:x="adobe:ns:meta/" x:xmptk="Adobe XMP Core 5.6-c142 79.160924, 2017/07/13-01:06:39        ">
   <rdf:RDF xmlns:rdf="http://www.w3.org/1999/02/22-rdf-syntax-ns#">
      <rdf:Description rdf:about=""/>
   </rdf:RDF>
</x:xmpmeta>
                                                                                                    
                                                                                                    
                                                                                                    
                                                                                                    
                                                                                                    
                                                                                                    
                                                                                                    
                                                                                                    
                                                                                                    
                                                                                                    
                                                                                                    
                                                                                                    
                                                                                                    
                                                                                                    
                                                                                                    
                                                                                                    
                                                                                                    
                                                                                                    
                                                                                                    
                                                                                                    
                           
<?xpacket end="w"?></metadata>
<defs>
    <style>
      .cls-1, .cls-3 {
        fill: #f0f1f7;
      }

      .cls-1, .cls-2, .cls-4, .cls-6 {
        fill-rule: evenodd;
      }

      .cls-2 {
        fill: #3b6291;
      }

      .cls-4 {
        fill: #fff;
      }

      .cls-5 {
        fill: #1e8dea;
      }

      .cls-6 {
        fill: #4079b6;
      }
    </style>
  </defs>
  <path id="Прямокутник_1095" data-name="Прямокутник 1095" class="cls-1" d="M136,327a90.794,90.794,0,0,1,17.08-2A80.13,80.13,0,0,1,170,327c1.5,0.683,3,1.343,3,3v52c0,1.657-1.152,2.389-3,3a84.849,84.849,0,0,1-16.977,2A85.414,85.414,0,0,1,136,385c-1.56-.41-3-1.343-3-3V330C133,328.343,134.313,327.508,136,327Zm1.7,1.871A78.792,78.792,0,0,1,153.072,327a69.534,69.534,0,0,1,15.228,1.871c1.6,0.63,2.7,1.256,2.7,2.806v48.646c0,1.55-1.018,2.081-2.7,2.806A73.633,73.633,0,0,1,153.021,385a74.115,74.115,0,0,1-15.321-1.871c-1.467-.41-2.7-1.256-2.7-2.806V331.677C135,330.127,136.1,329.449,137.7,328.871Z" transform="translate(-108 -323)"/>
  <path id="Прямокутник_1095_копія" data-name="Прямокутник 1095 копія" class="cls-2" d="M140.25,331.71A60.213,60.213,0,0,1,153.06,330a53.171,53.171,0,0,1,12.69,1.71c1.33,0.575,2.25,1.148,2.25,2.564v44.452c0,1.416-.848,1.9-2.25,2.564A56.285,56.285,0,0,1,153.017,383a56.656,56.656,0,0,1-12.767-1.71,2.716,2.716,0,0,1-2.25-2.564V334.274C138,332.858,138.92,332.238,140.25,331.71Z" transform="translate(-108 -323)"/>
  <rect id="Прямокутник_1098" data-name="Прямокутник 1098" class="cls-3" x="30" y="7" width="30" height="26"/>
  <path id="Forma_1_копія_2" data-name="Forma 1 копія 2" class="cls-4" d="M156.636,349.354c-1.634-2.315-3.292-4.188-3.308-4.207a0.433,0.433,0,0,0-.654,0c-0.016.019-1.674,1.892-3.308,4.207-2.232,3.162-3.364,5.617-3.364,7.3a7.007,7.007,0,1,0,14,0C160,354.97,158.868,352.516,156.636,349.354Z" transform="translate(-108 -323)"/>
  <path id="Прямокутник_873_копія_3" data-name="Прямокутник 873 копія 3" class="cls-1" d="M124.5,387h-5a1.5,1.5,0,0,1,0-3H123V371h-1.5a1.5,1.5,0,0,1,0-3H123V357h-3.5a1.5,1.5,0,0,1,0-3H123V342h-1.5a1.5,1.5,0,0,1,0-3H123V328h-3.5a1.5,1.5,0,0,1,0-3h5a1.5,1.5,0,0,1,1.5,1.5v59A1.5,1.5,0,0,1,124.5,387Z" transform="translate(-108 -323)"/>
  <rect id="Прямокутник_873_копія_2" data-name="Прямокутник 873 копія 2" class="cls-5" x="1" y="31" width="6" height="33"/>
  <path id="Фігура_825" data-name="Фігура 825" class="cls-6" d="M126,354.5l6,3.5v-7l-6,3.5" transform="translate(-108 -323)"/>
</svg>
