<svg id="ic_map" xmlns="http://www.w3.org/2000/svg" width="66" height="66" viewBox="0 0 66 66">
  <metadata><?xpacket begin="﻿" id="W5M0MpCehiHzreSzNTczkc9d"?>
<x:xmpmeta xmlns:x="adobe:ns:meta/" x:xmptk="Adobe XMP Core 5.6-c142 79.160924, 2017/07/13-01:06:39        ">
   <rdf:RDF xmlns:rdf="http://www.w3.org/1999/02/22-rdf-syntax-ns#">
      <rdf:Description rdf:about=""/>
   </rdf:RDF>
</x:xmpmeta>
                                                                                                    
                                                                                                    
                                                                                                    
                                                                                                    
                                                                                                    
                                                                                                    
                                                                                                    
                                                                                                    
                                                                                                    
                                                                                                    
                                                                                                    
                                                                                                    
                                                                                                    
                                                                                                    
                                                                                                    
                                                                                                    
                                                                                                    
                                                                                                    
                                                                                                    
                                                                                                    
                           
<?xpacket end="w"?></metadata>
<defs>
    <style>
      .cls-1 {
        fill: #f0f1f7;
      }

      .cls-1, .cls-2, .cls-4, .cls-5 {
        fill-rule: evenodd;
      }

      .cls-2 {
        fill: #4079b6;
      }

      .cls-3 {
        fill: #fff;
      }

      .cls-4 {
        fill: #3b6291;
      }

      .cls-5 {
        fill: #1e8dea;
      }
    </style>
  </defs>
  <path id="Фігура_1095" data-name="Фігура 1095" class="cls-1" d="M335.018,256.786l-8.357,1.377,5.453,15.4-0.331,7.173,0.36,0.267H310.481L310,279.934l0.3-20.354-7.706.778-4.544,8.234,2.261,8.193L298.8,281h-2.586l1.68-3.985-2.176-9.136,3.894-8.459,2-5.919h-1.659l-1.368-2.653-9.584.677V249.16l10.867-.768,1.785,2.75h0.687l1.3-5.673-6.863-6.029-0.23-1.488,1.789-2.947-7.773-4.889,0.641-1-1.148-.324,1.121-3.875-2.171.165V217h21.922l2.858,16.946-0.169,3.04h6.138l5.178-6.581L321.979,217h2.443l2.614,11.885,9.471,2.159,6.793-9.765L342.372,217H353v12.61l-0.428.381-4.6,9.095-0.306-.151-0.074.8-6.641-.6,2.034,3.561L353,240.773v2.4l-9.253,1.779-3.831,5.3-6.314,4.372,13.668-3.8,1.273,0.267L353,252.013v18.215l-1.328,1.45Zm3.447-8.583,2.233-3.459-4-7,0.545-.311-1.578-4.159L327,231.3l0.158,0.121-5.717,7.927h-8.68l-2.133,5.9-1.124,1.176h-3.239l-0.528,2.318-3.022,8.958,20.917-1.429,5.807-1.322Z" transform="translate(-288 -216)"/>
  <path id="Forma_1_копія_7" data-name="Forma 1 копія 7" class="cls-2" d="M314.636,271.875c-1.634,2.194-3.292,3.968-3.308,3.986a0.45,0.45,0,0,1-.654,0c-0.016-.018-1.674-1.792-3.308-3.986-2.232-3-3.364-5.321-3.364-6.911a7,7,0,0,1,14,0C318,266.554,316.868,268.88,314.636,271.875Z" transform="translate(-288 -216)"/>
  <circle id="Еліпс_1095_копія_2" data-name="Еліпс 1095 копія 2" class="cls-3" cx="23" cy="49" r="4"/>
  <path id="Forma_1_копія_4" data-name="Forma 1 копія 4" class="cls-4" d="M337.636,246.875c-1.634,2.194-3.292,3.968-3.308,3.986a0.45,0.45,0,0,1-.654,0c-0.016-.018-1.674-1.792-3.308-3.986-2.232-3-3.364-5.321-3.364-6.911a7,7,0,0,1,14,0C341,241.554,339.868,243.88,337.636,246.875Z" transform="translate(-288 -216)"/>
  <circle id="Еліпс_1095_копія" data-name="Еліпс 1095 копія" class="cls-3" cx="46" cy="24" r="4"/>
  <path id="Forma_1_копія_8" data-name="Forma 1 копія 8" class="cls-5" d="M305.636,233.875c-1.634,2.194-3.292,3.968-3.308,3.986a0.45,0.45,0,0,1-.654,0c-0.016-.018-1.674-1.792-3.308-3.986-2.232-3-3.364-5.321-3.364-6.911a7,7,0,0,1,14,0C309,228.554,307.868,230.88,305.636,233.875Z" transform="translate(-288 -216)"/>
  <circle id="Еліпс_1095_копія_3" data-name="Еліпс 1095 копія 3" class="cls-3" cx="14" cy="11" r="4"/>
</svg>
