<svg id="ic_slider" xmlns="http://www.w3.org/2000/svg" width="66" height="66" viewBox="0 0 66 66">
  <metadata><?xpacket begin="﻿" id="W5M0MpCehiHzreSzNTczkc9d"?>
<x:xmpmeta xmlns:x="adobe:ns:meta/" x:xmptk="Adobe XMP Core 5.6-c142 79.160924, 2017/07/13-01:06:39        ">
   <rdf:RDF xmlns:rdf="http://www.w3.org/1999/02/22-rdf-syntax-ns#">
      <rdf:Description rdf:about=""/>
   </rdf:RDF>
</x:xmpmeta>
                                                                                                    
                                                                                                    
                                                                                                    
                                                                                                    
                                                                                                    
                                                                                                    
                                                                                                    
                                                                                                    
                                                                                                    
                                                                                                    
                                                                                                    
                                                                                                    
                                                                                                    
                                                                                                    
                                                                                                    
                                                                                                    
                                                                                                    
                                                                                                    
                                                                                                    
                                                                                                    
                           
<?xpacket end="w"?></metadata>
<defs>
    <style>
      .cls-1 {
        fill: #f0f1f7;
        fill-rule: evenodd;
      }

      .cls-2 {
        fill: #4079b6;
      }

      .cls-3, .cls-4 {
        fill: #1e8dea;
      }

      .cls-3 {
        opacity: 0.15;
      }
    </style>
  </defs>
  <path id="Прямокутник_873_копія" data-name="Прямокутник 873 копія" class="cls-1" d="M199.5,145a1.5,1.5,0,0,1,1.5,1.5v5a1.5,1.5,0,0,1-3,0v-5A1.5,1.5,0,0,1,199.5,145Zm32,0a1.5,1.5,0,0,1,1.5,1.5v5a1.5,1.5,0,0,1-3,0v-5A1.5,1.5,0,0,1,231.5,145Zm31,0a1.5,1.5,0,0,1,1.5,1.5v5a1.5,1.5,0,0,1-3,0v-5A1.5,1.5,0,0,1,262.5,145Zm-15,0a1.5,1.5,0,0,1,1.5,1.5v2a1.5,1.5,0,0,1-3,0v-2A1.5,1.5,0,0,1,247.5,145Zm-31,0a1.5,1.5,0,0,1,1.5,1.5v2a1.5,1.5,0,0,1-3,0v-2A1.5,1.5,0,0,1,216.5,145ZM201,132h60a3,3,0,0,1,0,6H201A3,3,0,0,1,201,132Z" transform="translate(-198 -106.5)"/>
  <rect id="Прямокутник_873" data-name="Прямокутник 873" class="cls-2" y="25.5" width="35" height="6" rx="3" ry="3"/>
  <circle id="Еліпс_526_копія" data-name="Еліпс 526 копія" class="cls-3" cx="33" cy="28.5" r="9"/>
  <circle id="Еліпс_526" data-name="Еліпс 526" class="cls-4" cx="33" cy="28.5" r="5"/>
</svg>
