<svg id="ic_variable_value" xmlns="http://www.w3.org/2000/svg" width="66" height="66" viewBox="0 0 66 66">
  <metadata><?xpacket begin="﻿" id="W5M0MpCehiHzreSzNTczkc9d"?>
<x:xmpmeta xmlns:x="adobe:ns:meta/" x:xmptk="Adobe XMP Core 5.6-c142 79.160924, 2017/07/13-01:06:39        ">
   <rdf:RDF xmlns:rdf="http://www.w3.org/1999/02/22-rdf-syntax-ns#">
      <rdf:Description rdf:about=""/>
   </rdf:RDF>
</x:xmpmeta>
                                                                                                    
                                                                                                    
                                                                                                    
                                                                                                    
                                                                                                    
                                                                                                    
                                                                                                    
                                                                                                    
                                                                                                    
                                                                                                    
                                                                                                    
                                                                                                    
                                                                                                    
                                                                                                    
                                                                                                    
                                                                                                    
                                                                                                    
                                                                                                    
                                                                                                    
                                                                                                    
                           
<?xpacket end="w"?></metadata>
<defs>
    <style>
      .cls-1 {
        fill: #3b6291;
      }

      .cls-1, .cls-2 {
        fill-rule: evenodd;
      }

      .cls-2 {
        fill: #1e8dea;
      }
    </style>
  </defs>
  <path id="_0.562_копія" data-name="{0.562} копія" class="cls-1" d="M28.089,139.277a7.806,7.806,0,0,1,1.162-4.528,4.2,4.2,0,0,1,3.712-1.671,4.206,4.206,0,0,1,3.7,1.671,9.391,9.391,0,0,1,0,9.082,4.2,4.2,0,0,1-3.7,1.68,4.193,4.193,0,0,1-3.712-1.68,7.88,7.88,0,0,1-1.162-4.554h0Zm6.8,0a6.4,6.4,0,0,0-.39-2.519,1.514,1.514,0,0,0-1.535-.875,1.545,1.545,0,0,0-1.561.883,6.281,6.281,0,0,0-.4,2.511,6.4,6.4,0,0,0,.4,2.537,1.541,1.541,0,0,0,1.561.892,1.51,1.51,0,0,0,1.535-.892,6.53,6.53,0,0,0,.39-2.537h0Zm4.18,3.29v2.961h3.07v-2.961h-3.07Zm13.407-9.575h-8.2V140.4h2.879a1.265,1.265,0,0,1,.52-0.65,1.7,1.7,0,0,1,.954-0.251,1.539,1.539,0,0,1,1.162.433,1.7,1.7,0,0,1,.416,1.23,2.114,2.114,0,0,1-.39,1.333,1.39,1.39,0,0,1-1.171.5,1.461,1.461,0,0,1-1.067-.381,1.647,1.647,0,0,1-.477-0.97H44.2a3.989,3.989,0,0,0,.59,2.044,3.722,3.722,0,0,0,1.578,1.376,5.5,5.5,0,0,0,2.411.494,4.206,4.206,0,0,0,3.174-1.169,4.383,4.383,0,0,0,1.127-3.177,5.031,5.031,0,0,0-.4-2.026,3.276,3.276,0,0,0-1.231-1.464,3.694,3.694,0,0,0-2.064-.545,4.147,4.147,0,0,0-1.414.234,2.393,2.393,0,0,0-1.015.649v-2.476h5.516v-2.6Zm8.343,3.671h2.775a4.465,4.465,0,0,0-1.128-2.78,3.8,3.8,0,0,0-2.949-1.1,3.993,3.993,0,0,0-3.556,1.6,9,9,0,0,0-1.093,5,8.774,8.774,0,0,0,1.023,4.606q1.023,1.662,3.712,1.662a4.891,4.891,0,0,0,2.35-.528,3.526,3.526,0,0,0,1.483-1.48,4.6,4.6,0,0,0,.5-2.182,4.167,4.167,0,0,0-1.006-3,3.619,3.619,0,0,0-2.74-1.048,3.345,3.345,0,0,0-1.674.407,2.26,2.26,0,0,0-1.015,1.117,6.893,6.893,0,0,1,.39-2.849,1.466,1.466,0,0,1,1.431-.926,1.32,1.32,0,0,1,1.015.381,2.117,2.117,0,0,1,.477,1.126h0Zm-3.087,4.657a1.487,1.487,0,0,1,.5-1.2,1.869,1.869,0,0,1,1.249-.424,1.686,1.686,0,0,1,1.231.441,2.025,2.025,0,0,1,.009,2.537,1.672,1.672,0,0,1-1.223.433,1.7,1.7,0,0,1-1.318-.494,1.835,1.835,0,0,1-.451-1.29h0Zm7.666,1.853v2.217h8.742V143H69.3a12.777,12.777,0,0,0,3.278-2.883,5.535,5.535,0,0,0,1.37-3.489,3.518,3.518,0,0,0-1.015-2.615,4.111,4.111,0,0,0-3.009-1,4.538,4.538,0,0,0-3.157,1.125,4.6,4.6,0,0,0-1.353,3.36h2.9a2.972,2.972,0,0,1,.356-1.507,1.129,1.129,0,0,1,1.015-.485,1.179,1.179,0,0,1,1.231,1.42q0,2.321-5.516,6.251h0Z" transform="translate(-18 -107)"/>
  <path id="_0.562_копія_2" data-name="{0.562} копія 2" class="cls-2" d="M21.892,140.008v-0.041a2.826,2.826,0,0,0,1.663-.835,2.7,2.7,0,0,0,.52-1.793,16.273,16.273,0,0,0-.163-1.915,16.3,16.3,0,0,1-.163-1.956,6.349,6.349,0,0,1,.8-3.381,4.163,4.163,0,0,1,2.082-1.773v-0.326H22.4a4.278,4.278,0,0,0-1.184.856,5.276,5.276,0,0,0-1.122,1.793,7.56,7.56,0,0,0-.49,2.892,12.876,12.876,0,0,0,.183,2.017,15.421,15.421,0,0,1,.163,1.915,1.869,1.869,0,0,1-.449,1.283,1.9,1.9,0,0,1-1.49.51v1.466a1.894,1.894,0,0,1,1.459.52,1.809,1.809,0,0,1,.479,1.273,15.406,15.406,0,0,1-.163,1.915,12.886,12.886,0,0,0-.183,2.017,7.565,7.565,0,0,0,.49,2.893,5.281,5.281,0,0,0,1.122,1.792,4.257,4.257,0,0,0,1.184.856h4.224V151.66a4.166,4.166,0,0,1-2.082-1.772,6.353,6.353,0,0,1-.8-3.382,16.372,16.372,0,0,1,.163-1.976,16.227,16.227,0,0,0,.163-1.9,2.676,2.676,0,0,0-.541-1.792,2.729,2.729,0,0,0-1.643-.835h0Zm58.236-.041v0.041a3.106,3.106,0,0,0-1.653.723,2,2,0,0,0-.531,1.5,16.16,16.16,0,0,0,.163,1.895,16.436,16.436,0,0,1,.163,1.976,8.058,8.058,0,0,1-.378,2.505,5.836,5.836,0,0,1-1.041,1.956,3.6,3.6,0,0,1-1.459,1.1v0.326h4.2a4.26,4.26,0,0,0,1.184-.856,5.286,5.286,0,0,0,1.122-1.792,7.565,7.565,0,0,0,.49-2.893,12.875,12.875,0,0,0-.184-2.017,15.367,15.367,0,0,1-.163-1.915,2.05,2.05,0,0,1,.408-1.273,1.437,1.437,0,0,1,1.224-.54,1.76,1.76,0,0,1,.306.02v-1.466l-0.245.02a1.518,1.518,0,0,1-1.265-.54,1.984,1.984,0,0,1-.429-1.273,15.382,15.382,0,0,1,.163-1.915,12.865,12.865,0,0,0,.184-2.017,7.56,7.56,0,0,0-.49-2.892,5.281,5.281,0,0,0-1.122-1.793,4.281,4.281,0,0,0-1.184-.856h-4.2v0.326a3.609,3.609,0,0,1,1.459,1.1,5.836,5.836,0,0,1,1.041,1.956,8.06,8.06,0,0,1,.378,2.506,16.371,16.371,0,0,1-.163,1.955,16.224,16.224,0,0,0-.163,1.915,1.988,1.988,0,0,0,.52,1.487,3.241,3.241,0,0,0,1.663.734h0Z" transform="translate(-18 -107)"/>
</svg>
